<?xml version="1.0" standalone="no"?>
<!DOCTYPE svg PUBLIC "-//W3C//DTD SVG 20010904//EN"
 "http://www.w3.org/TR/2001/REC-SVG-20010904/DTD/svg10.dtd">
<svg version="1.0" xmlns="http://www.w3.org/2000/svg"
 width="606.000000pt" height="606.000000pt" viewBox="0 0 606.000000 606.000000"
 preserveAspectRatio="xMidYMid meet">
<metadata>
Created by potrace 1.11, written by Peter Selinger 2001-2013
</metadata>
<g transform="translate(0.000000,606.000000) scale(0.100000,-0.100000)"
fill="#000000" stroke="none">
<path d="M1650 4056 c-58 -19 -132 -42 -165 -51 -77 -22 -204 -64 -230 -75
-11 -5 -54 -23 -95 -39 -73 -28 -159 -73 -190 -98 -33 -26 -150 -112 -235
-173 -49 -36 -113 -83 -141 -105 -28 -22 -84 -65 -124 -95 -40 -30 -77 -59
-84 -65 -124 -108 -181 -164 -237 -235 -69 -84 -92 -134 -106 -220 -9 -53 -8
-822 0 -845 6 -13 33 -15 195 -14 l189 2 -3 81 c-5 159 -5 492 1 536 16 111
50 186 108 234 17 15 65 43 104 62 40 19 106 49 146 68 132 63 257 165 550
453 88 87 109 122 90 152 -10 15 -81 23 -93 11 -12 -14 -117 -73 -141 -80 -34
-10 -59 5 -54 31 6 31 18 42 108 102 125 83 220 134 351 189 192 81 226 105
226 157 0 32 -17 51 -44 51 -12 0 -68 -16 -126 -34z"/>
<path d="M41 4060 c-5 -12 -7 -875 -2 -955 1 -15 5 -12 16 13 9 21 19 31 26
26 7 -4 9 -3 6 3 -15 24 110 155 266 279 l72 57 0 293 c0 162 -2 295 -5 295
-3 1 -88 2 -188 3 -156 1 -185 -1 -191 -14z"/>
<path d="M3402 3519 c-15 -5 -17 -27 -17 -213 l0 -206 100 0 c84 0 108 4 151
24 81 38 121 114 111 213 -7 66 -37 116 -90 151 -35 23 -53 27 -139 32 -54 3
-107 2 -116 -1z m192 -64 c56 -30 87 -99 76 -172 -13 -83 -74 -133 -162 -133
l-48 0 0 160 0 160 53 0 c28 0 65 -7 81 -15z"/>
<path d="M1792 3310 l1 -210 39 0 38 0 0 61 c0 46 5 68 21 90 11 16 24 29 28
29 4 0 36 -40 70 -90 l62 -90 45 0 44 0 -63 88 c-34 48 -73 101 -85 119 l-22
32 62 73 c101 117 97 108 47 108 -43 0 -45 -2 -124 -95 l-80 -95 -3 95 -3 95
-39 0 -40 0 2 -210z"/>
<path d="M3809 3518 c-1 -2 -2 -96 -3 -210 l-2 -208 38 0 38 0 0 100 c0 94 2
103 25 125 30 31 69 32 89 3 12 -17 16 -48 16 -126 l0 -103 37 3 37 3 -1 88
c-1 48 -2 101 -2 118 -1 20 -11 41 -30 60 -25 24 -37 29 -81 29 -28 0 -60 -5
-71 -10 -18 -10 -19 -7 -19 60 l0 70 -35 0 c-19 0 -36 -1 -36 -2z"/>
<path d="M2205 3384 c-40 -20 -48 -36 -28 -51 23 -17 43 -16 64 3 29 26 69 21
98 -12 l24 -29 -74 -5 c-107 -7 -139 -31 -139 -103 0 -40 34 -83 75 -93 14 -3
45 -3 68 1 23 4 63 6 90 5 l47 -1 0 101 c0 123 -14 164 -64 185 -46 19 -123
19 -161 -1z m147 -152 c6 -6 3 -22 -6 -41 -26 -50 -73 -66 -108 -34 -26 23
-22 48 9 73 21 16 36 20 62 16 19 -3 38 -9 43 -14z"/>
<path d="M2587 3393 c-4 -4 -29 -6 -55 -4 l-47 2 0 -146 0 -145 38 0 37 0 0
100 c0 95 2 102 26 126 21 22 31 25 60 20 33 -7 34 -6 34 24 0 29 -2 30 -43
30 -24 0 -47 -3 -50 -7z"/>
<path d="M2817 3393 c-4 -4 -29 -6 -55 -4 l-48 2 -1 -146 0 -145 38 0 39 0 0
99 c0 84 3 102 21 125 26 33 71 35 93 4 12 -17 16 -48 16 -125 l0 -103 35 0
35 0 0 121 c0 120 0 121 -29 150 -25 25 -37 29 -84 29 -29 0 -57 -3 -60 -7z"/>
<path d="M3093 3384 c-42 -21 -49 -42 -18 -56 24 -11 29 -10 74 16 31 18 74 4
89 -29 l12 -25 -66 0 c-101 0 -144 -31 -144 -103 0 -40 34 -83 75 -93 14 -3
45 -3 68 1 23 4 63 6 90 5 l47 -1 0 101 c0 117 -14 161 -59 184 -38 20 -127
20 -168 0z m130 -145 c30 -14 25 -51 -11 -79 -30 -24 -59 -25 -84 -3 -25 23
-22 48 8 72 30 24 52 26 87 10z"/>
<path d="M4185 3384 c-37 -19 -47 -35 -33 -51 14 -18 48 -16 69 3 28 25 69 21
96 -10 13 -15 23 -30 23 -34 0 -4 -27 -5 -61 -4 -99 6 -149 -27 -149 -99 0
-42 33 -84 75 -95 14 -3 45 -3 68 1 23 4 64 6 90 5 l48 -1 -2 104 c-2 118 -15
159 -60 183 -37 19 -126 18 -164 -2z m123 -140 c30 -8 29 -48 -3 -79 -28 -29
-61 -32 -87 -8 -25 23 -22 48 8 72 28 22 44 25 82 15z"/>
<path d="M4503 3384 c-44 -22 -48 -41 -14 -58 25 -14 29 -13 48 6 30 30 72 26
102 -8 l24 -29 -74 -5 c-107 -7 -139 -31 -139 -103 0 -40 34 -83 75 -93 14 -3
45 -3 68 1 23 4 63 6 90 5 l47 -1 0 99 c0 118 -11 155 -55 182 -40 25 -126 27
-172 4z m131 -144 c23 -8 24 -12 15 -40 -20 -55 -74 -76 -111 -43 -25 23 -22
48 8 72 29 23 50 26 88 11z"/>
<path d="M4887 3393 c-4 -4 -29 -6 -55 -4 l-48 2 1 -143 0 -143 38 -3 37 -3 0
99 c0 85 3 103 21 126 26 33 71 35 93 4 12 -17 16 -48 16 -125 l0 -103 34 0
35 0 3 53 c2 28 1 85 -2 125 -5 65 -8 77 -33 98 -22 19 -40 24 -81 24 -29 0
-56 -3 -59 -7z"/>
<path d="M5163 3384 c-42 -21 -49 -42 -18 -56 24 -11 29 -10 74 16 31 18 74 4
89 -29 l12 -25 -69 0 c-92 0 -135 -27 -139 -87 -6 -79 48 -122 136 -109 26 4
68 7 95 6 l47 -1 0 101 c0 117 -14 161 -59 184 -38 20 -127 20 -168 0z m132
-144 c21 -8 25 -14 20 -33 -9 -30 -51 -67 -77 -67 -27 0 -58 27 -58 51 0 21
45 59 71 59 10 0 30 -5 44 -10z"/>
<path d="M879 3005 c-19 -13 -82 -42 -140 -66 -57 -24 -118 -52 -135 -63 l-32
-20 41 -61 c89 -131 313 -413 363 -456 63 -55 269 -138 613 -250 l194 -63 18
23 c24 30 24 66 0 90 -19 19 -112 65 -206 103 -54 21 -197 90 -230 110 -189
118 -247 167 -229 196 19 30 53 25 124 -17 91 -54 114 -63 145 -51 31 12 33
41 5 84 -38 61 -347 355 -460 438 l-35 26 -36 -23z"/>
<path d="M1840 2804 c0 -3 11 -48 25 -100 14 -52 25 -96 25 -100 0 -3 10 -4
22 -2 14 2 25 13 31 33 4 17 14 50 21 75 l13 45 24 -78 c19 -65 26 -77 43 -75
15 2 24 23 46 106 26 96 27 102 9 102 -18 0 -29 -25 -45 -108 -7 -37 -19 -34
-28 5 -24 99 -27 104 -48 101 -22 -3 -27 -13 -48 -98 -14 -52 -21 -44 -40 43
-10 44 -17 57 -32 57 -10 0 -18 -3 -18 -6z"/>
<path d="M2750 2704 c0 -95 2 -105 17 -102 15 3 18 16 18 93 1 102 -1 115 -21
115 -11 0 -14 -22 -14 -106z"/>
<path d="M3060 2704 c0 -93 2 -105 17 -102 12 2 17 15 18 52 2 55 25 83 54 64
12 -7 16 -24 16 -61 0 -41 4 -52 18 -55 15 -3 17 5 17 56 0 71 -19 96 -72 90
-27 -2 -33 1 -34 17 -1 11 -2 26 -3 33 -1 6 -8 12 -16 12 -12 0 -15 -18 -15
-106z"/>
<path d="M4060 2705 c0 -96 2 -105 19 -105 14 0 18 6 15 27 -4 42 7 83 25 93
29 15 44 -5 45 -61 1 -43 5 -54 19 -57 15 -3 17 5 17 56 0 71 -19 96 -72 90
-27 -2 -33 1 -34 17 -1 11 -2 26 -3 33 -1 6 -8 12 -16 12 -12 0 -15 -18 -15
-105z"/>
<path d="M5286 2801 c-8 -12 21 -34 34 -26 17 11 11 35 -9 35 -11 0 -22 -4
-25 -9z"/>
<path d="M4424 2775 c3 -9 -3 -19 -15 -25 -11 -6 -17 -15 -14 -21 4 -5 11 -7
16 -4 10 7 11 6 13 -58 2 -51 16 -69 50 -65 27 4 33 28 7 28 -18 0 -21 6 -21
50 0 28 3 49 8 49 18 -3 32 2 32 11 0 6 -9 10 -20 10 -13 0 -20 7 -20 20 0 14
-7 20 -21 20 -15 0 -19 -5 -15 -15z"/>
<path d="M2158 2731 c-36 -28 -37 -83 -2 -110 15 -12 39 -21 53 -21 28 0 71
25 71 41 0 14 -30 11 -46 -6 -12 -11 -20 -12 -39 -3 -46 21 -30 38 36 38 58 0
60 1 54 23 -16 54 -81 74 -127 38z m86 -27 c4 -11 -4 -14 -34 -14 -42 0 -52
12 -24 28 21 12 51 4 58 -14z"/>
<path d="M2411 2733 c-11 -10 -24 -32 -27 -50 -12 -62 76 -109 129 -69 24 19
37 68 24 92 -25 46 -87 59 -126 27z m94 -42 c7 -24 -3 -49 -26 -62 -25 -13
-70 29 -62 59 11 43 74 45 88 3z"/>
<path d="M2570 2674 c0 -64 2 -74 18 -74 14 0 17 9 18 51 0 39 5 55 19 65 31
23 49 -4 46 -66 -2 -45 0 -50 18 -50 19 0 21 6 21 58 0 75 -16 91 -88 90 l-52
0 0 -74z"/>
<path d="M2810 2733 c17 -32 50 -112 50 -123 0 -6 -7 -24 -15 -40 -15 -28 -14
-30 4 -30 14 0 26 17 47 68 15 37 31 72 35 77 4 6 12 23 18 38 9 23 8 27 -8
27 -12 0 -25 -15 -39 -47 l-21 -48 -20 48 c-15 34 -26 47 -41 47 -16 0 -18 -3
-10 -17z"/>
<path d="M3254 2736 c-26 -19 -11 -32 21 -18 25 12 55 7 55 -9 0 -5 -15 -9
-33 -9 -36 0 -67 -25 -67 -53 0 -31 28 -46 85 -46 l55 1 0 57 c0 44 -4 60 -20
74 -25 21 -69 22 -96 3z m81 -66 c9 -14 -32 -50 -50 -44 -15 6 -20 35 -8 47
10 10 51 8 58 -3z"/>
<path d="M3422 2675 c44 -107 57 -104 109 28 18 46 18 47 0 47 -14 0 -23 -12
-33 -42 -13 -39 -38 -64 -38 -38 0 27 -33 80 -50 80 -17 0 -16 -7 12 -75z"/>
<path d="M3585 2725 c-14 -13 -25 -36 -25 -50 0 -35 42 -75 77 -75 30 0 73 24
73 41 0 14 -30 11 -46 -6 -18 -17 -57 -6 -62 19 -3 13 6 16 57 16 57 0 60 1
56 23 -11 56 -88 75 -130 32z m89 -21 c4 -11 -5 -14 -41 -14 l-46 0 22 19 c23
20 56 18 65 -5z"/>
<path d="M3816 2703 c29 -88 36 -103 54 -103 12 0 21 14 30 45 14 52 25 50 40
-5 12 -46 43 -55 55 -17 4 12 8 27 10 32 2 6 10 29 19 53 14 40 14 42 -4 42
-14 0 -23 -11 -31 -40 -7 -22 -16 -40 -20 -40 -5 0 -13 18 -19 40 -8 29 -16
40 -30 40 -14 0 -23 -11 -31 -40 -7 -22 -15 -40 -19 -40 -7 0 -22 41 -24 65
-1 6 -11 11 -23 13 -22 3 -22 3 -7 -45z"/>
<path d="M4254 2736 c-26 -19 -10 -32 22 -18 18 9 31 9 45 2 27 -15 24 -28 -6
-22 -41 7 -74 -6 -81 -34 -10 -41 18 -63 82 -63 l54 1 0 58 c0 49 -4 61 -22
74 -28 20 -68 20 -94 2z m75 -65 c11 -7 9 -13 -8 -30 -23 -23 -51 -18 -51 8 0
31 29 41 59 22z"/>
<path d="M4615 2678 c18 -57 28 -74 44 -76 17 -3 22 5 32 42 13 53 24 51 39
-4 8 -29 16 -40 29 -40 15 0 25 17 44 75 24 71 25 75 7 75 -14 0 -23 -12 -31
-40 -7 -22 -16 -40 -20 -40 -5 0 -13 18 -19 40 -14 54 -44 55 -61 3 -18 -59
-21 -60 -36 -10 -10 34 -19 47 -32 47 -18 0 -18 -3 4 -72z"/>
<path d="M4867 2730 c-52 -41 -16 -130 52 -130 28 0 71 25 71 41 0 14 -30 11
-46 -6 -15 -14 -43 -10 -56 9 -15 22 -7 26 53 26 58 0 60 1 54 23 -16 55 -81
74 -128 37z m87 -26 c4 -11 -4 -14 -34 -14 -44 0 -53 16 -17 29 26 10 43 5 51
-15z"/>
<path d="M5117 2730 c-57 -45 -16 -137 57 -128 40 4 50 -14 17 -32 -21 -10
-51 -4 -51 11 0 5 -9 9 -20 9 -26 0 -25 -15 2 -34 35 -25 83 -20 107 10 17 22
21 41 21 104 l0 78 -54 1 c-39 0 -61 -5 -79 -19z m92 -40 c6 -20 6 -33 -2 -43
-27 -35 -77 -19 -77 23 0 60 60 74 79 20z"/>
<path d="M5292 2675 c1 -66 3 -75 19 -75 17 0 19 9 19 75 0 68 -2 75 -19 75
-18 0 -20 -7 -19 -75z"/>
<path d="M5382 2676 c44 -108 57 -105 109 27 18 46 18 47 0 47 -12 0 -24 -14
-35 -45 -10 -25 -21 -45 -25 -45 -3 0 -13 19 -21 43 -11 30 -21 43 -37 45 -22
3 -22 2 9 -72z"/>
<path d="M5545 2726 c-46 -46 -12 -126 54 -126 28 0 71 25 71 41 0 14 -30 11
-46 -6 -12 -11 -20 -12 -39 -3 -46 21 -30 38 36 38 58 0 60 1 54 23 -17 57
-88 75 -130 33z m81 -13 c17 -17 17 -18 -4 -21 -12 -2 -32 -2 -44 0 -21 3 -21
4 -4 21 10 9 21 17 26 17 5 0 16 -8 26 -17z"/>
<path d="M5707 2633 c-14 -13 -6 -33 12 -33 19 0 35 23 24 34 -8 8 -28 8 -36
-1z"/>
</g>
</svg>
